<svg viewBox="0 0 160 160" xmlns="http://www.w3.org/2000/svg"><g fill="#FFFFFF"><path d="m41.846 68.44 5.307-20.46a5.984 5.984 0 0 1 7.3-4.294 5.996 5.996 0 0 1 4.286 7.312l-5.46 21.034a66.905 66.905 0 0 1 21.833 14.67 67.147 67.147 0 0 1 14.58 21.915l21.013-5.402a5.99 5.99 0 0 1 7.286 4.314 6.001 6.001 0 0 1-4.306 7.298l-20.44 5.255c2.84 13.268 1.647 27.23-3.573 39.918 17.086-2.103 33.62-9.709 46.76-22.823 31.359-31.317 31.432-82.16.172-113.57C105.338-7.803 54.58-7.877 23.22 23.434 9.427 37.196 1.687 54.737 0 72.746c13.2-5.91 27.913-7.345 41.846-4.307Z"/><ellipse transform="rotate(-18 23.985 90.31)" cx="23.985" cy="90.31" rx="8.728" ry="7.337"/><path d="M68.632 146.211c3.847 1.262 8.173-1.435 9.68-6.023 1.5-4.587-.4-9.328-4.24-10.59-3.846-1.262-8.173 1.435-9.68 6.023-1.5 4.587.4 9.328 4.24 10.59Z"/></g></svg>
